<mxfile host="app.diagrams.net" modified="2023-11-06T02:11:33.233Z" agent="Mozilla/5.0 (Windows NT 10.0; Win64; x64) AppleWebKit/537.36 (KHTML, like Gecko) Chrome/116.0.0.0 Safari/537.36 OPR/102.0.0.0 (Edition std-1)" version="22.0.8" etag="gM0eZ_MR37WWbbyTLijb" type="github">
  <diagram name="PÃ¡gina-1" id="dvhgGsewUnXy8_Pehxat">
    <mxGraphModel>
      <root>
        <mxCell id="0" />
        <mxCell id="1" parent="0" />
      </root>
    </mxGraphModel>
  </diagram>
</mxfile>
